<?xml version="1.0" standalone="no"?>
<!DOCTYPE svg PUBLIC "-//W3C//DTD SVG 20010904//EN"
 "http://www.w3.org/TR/2001/REC-SVG-20010904/DTD/svg10.dtd">
<svg version="1.0" xmlns="http://www.w3.org/2000/svg"
 width="1000.000000pt" height="1000.000000pt" viewBox="0 0 1000.000000 1000.000000"
 preserveAspectRatio="xMidYMid meet">
<metadata>
Created by potrace 1.11, written by Peter Selinger 2001-2013
</metadata>
<g transform="translate(0.000000,1000.000000) scale(0.100000,-0.100000)"
fill="#000000" stroke="none">
<path d="M4150 7262 l-844 -717 847 -3 c466 -1 1228 -1 1694 0 l847 3 -847
718 c-466 394 -848 717 -850 716 -1 0 -382 -323 -847 -717z"/>
<path d="M3982 6188 c3 -7 123 -366 268 -797 145 -432 266 -778 268 -770 14
43 525 1510 537 1542 l15 37 -546 0 c-433 0 -545 -3 -542 -12z"/>
<path d="M5150 6176 c-8 -23 -681 -1952 -736 -2108 l-23 -68 411 0 411 0 -7
150 c-10 245 -15 457 -10 430 42 -213 112 -342 220 -406 90 -53 422 -114 625
-114 163 0 256 30 344 111 65 60 90 124 90 234 0 77 -4 98 -26 145 -63 130
-183 200 -527 304 -294 90 -365 121 -499 223 -109 82 -164 166 -205 310 -18
63 -22 105 -23 218 0 156 18 239 77 345 30 53 126 180 137 180 3 1 24 16 46
35 l40 35 -168 0 -167 0 -10 -24z"/>
<path d="M5643 6171 c-51 -37 -98 -112 -112 -179 -15 -71 -14 -99 5 -161 38
-130 183 -216 529 -311 332 -91 449 -147 588 -279 l47 -45 0 502 c0 454 -2
502 -16 502 -15 0 -16 -23 -10 -232 5 -204 4 -226 -8 -178 -52 225 -143 337
-317 391 -54 17 -95 19 -363 19 l-303 0 -40 -29z"/>
<path d="M3300 5092 l0 -1092 405 0 404 0 -13 38 c-51 142 -789 2138 -792
2141 -2 2 -4 -487 -4 -1087z"/>
<path d="M6610 4211 c-69 -71 -101 -95 -171 -130 -47 -23 -116 -51 -155 -61
l-69 -19 243 0 242 -1 0 150 c0 83 -1 149 -2 149 -2 -1 -41 -40 -88 -88z"/>
<path d="M5269 4040 l-44 -39 280 1 c154 0 269 3 255 5 -14 2 -103 20 -199 39
-227 44 -237 44 -292 -6z"/>
<path d="M3300 3345 l0 -385 164 0 c190 0 253 14 335 74 194 143 194 479 0
622 -82 60 -145 74 -335 74 l-164 0 0 -385z m317 326 c119 -18 191 -71 242
-181 22 -46 26 -69 26 -145 0 -76 -4 -99 -26 -145 -34 -74 -76 -120 -136 -150
-44 -23 -61 -25 -210 -28 l-163 -3 0 324 c0 178 3 327 7 330 9 10 187 8 260
-2z"/>
<path d="M5206 3714 c-21 -20 -20 -30 4 -54 11 -11 24 -20 29 -20 16 0 41 30
41 49 0 38 -45 54 -74 25z"/>
<path d="M4237 3506 c-86 -31 -155 -104 -178 -190 -16 -58 -6 -163 19 -213 53
-103 155 -158 278 -151 81 5 162 43 196 91 11 15 19 29 17 30 -2 2 -12 9 -22
16 -15 12 -20 10 -38 -13 -36 -45 -95 -70 -174 -70 -59 -1 -77 3 -118 27 -54
32 -95 87 -104 141 l-6 36 248 0 248 0 -6 59 c-6 71 -46 150 -96 192 -67 55
-180 74 -264 45z m156 -47 c68 -19 130 -88 148 -166 l7 -33 -220 0 -221 0 6
36 c20 120 154 198 280 163z"/>
<path d="M4782 3499 c-75 -37 -108 -112 -78 -182 19 -46 58 -70 166 -103 112
-34 136 -48 147 -81 13 -41 5 -69 -27 -97 -63 -52 -185 -42 -240 21 -22 25
-36 33 -50 28 -30 -9 -24 -33 18 -75 46 -46 104 -64 189 -57 110 8 168 61 168
152 0 46 -4 58 -29 84 -30 31 -56 43 -181 81 -86 26 -115 51 -115 98 0 101
172 137 244 51 28 -33 38 -35 56 -14 9 11 8 20 -9 43 -48 68 -175 92 -259 51z"/>
<path d="M5584 3504 c-58 -21 -120 -77 -152 -138 -22 -43 -27 -64 -27 -131 0
-67 5 -88 27 -131 92 -175 328 -208 451 -64 l37 44 0 -75 c0 -122 -49 -192
-154 -220 -86 -23 -211 10 -253 67 -15 20 -25 25 -41 20 -47 -15 -9 -71 76
-113 50 -25 68 -28 152 -28 107 0 148 16 207 77 64 67 67 82 71 406 l4 292
-31 0 -31 0 0 -62 0 -62 -37 44 c-70 81 -192 112 -299 74z m224 -71 c28 -17
59 -48 77 -77 26 -43 30 -59 30 -121 0 -62 -4 -78 -30 -121 -77 -124 -240
-149 -349 -53 -105 92 -104 261 2 349 55 47 96 60 165 56 42 -3 72 -12 105
-33z"/>
<path d="M6330 3514 c-59 -24 -84 -41 -106 -73 l-24 -36 0 53 c0 51 0 52 -30
52 l-30 0 0 -275 0 -275 29 0 29 0 4 188 c3 210 8 227 81 286 35 28 46 31 107
31 79 0 113 -18 142 -76 15 -29 18 -63 18 -231 l0 -198 31 0 30 0 -3 208 c-3
193 -5 210 -26 249 -34 64 -87 95 -170 99 -37 2 -74 1 -82 -2z"/>
<path d="M5210 3235 l0 -275 25 0 25 0 0 275 0 275 -25 0 -25 0 0 -275z"/>
<path d="M3630 2675 c0 -57 4 -95 10 -95 6 0 10 38 10 95 0 57 -4 95 -10 95
-6 0 -10 -38 -10 -95z"/>
<path d="M3330 2745 c-23 -27 -4 -61 45 -79 35 -14 45 -23 45 -41 0 -35 -56
-49 -80 -20 -7 8 -17 15 -23 15 -5 0 -2 -9 8 -20 38 -42 126 -11 111 38 -4 11
-26 28 -49 37 -49 20 -59 32 -46 57 12 23 47 23 71 1 20 -18 25 -4 6 15 -17
17 -73 15 -88 -3z"/>
<path d="M3930 2749 c0 -5 5 -7 10 -4 6 3 10 8 10 11 0 2 -4 4 -10 4 -5 0 -10
-5 -10 -11z"/>
<path d="M3851 2728 c0 -9 -9 -19 -18 -21 -16 -4 -16 -5 -1 -6 14 -1 18 -13
20 -58 3 -54 5 -58 28 -60 25 -3 25 -3 3 7 -20 8 -23 17 -23 59 0 43 3 50 23
54 22 4 22 4 0 6 -12 0 -24 9 -26 19 -4 15 -5 15 -6 0z"/>
<path d="M3485 2690 c-38 -42 -9 -110 47 -110 35 0 68 32 68 65 0 56 -77 86
-115 45z m79 -3 c38 -28 13 -97 -35 -97 -25 0 -49 27 -49 55 0 46 47 69 84 42z"/>
<path d="M3681 2667 c-1 -63 12 -87 49 -87 16 0 32 4 35 10 4 6 -5 7 -23 4
-36 -7 -42 1 -52 70 l-8 51 -1 -48z"/>
<path d="M3778 2658 c-3 -29 -1 -60 3 -68 5 -9 9 13 9 53 0 80 -6 88 -12 15z"/>
<path d="M3933 2645 c0 -38 2 -53 4 -32 2 20 2 52 0 70 -2 17 -4 1 -4 -38z"/>
<path d="M3995 2690 c-38 -42 -9 -110 47 -110 35 0 68 32 68 65 0 56 -77 86
-115 45z m79 -3 c38 -28 13 -97 -35 -97 -25 0 -49 27 -49 55 0 46 47 69 84 42z"/>
<path d="M4142 2645 l0 -70 8 55 c5 30 4 61 -1 70 -5 10 -8 -10 -7 -55z"/>
<path d="M4165 2700 c-4 -6 5 -7 23 -4 36 7 45 -4 53 -71 l6 -50 2 48 c1 63
-12 87 -49 87 -16 0 -32 -4 -35 -10z"/>
<path d="M4292 2693 c-14 -27 -5 -41 34 -53 36 -12 45 -36 18 -47 -9 -3 -25
-1 -35 5 -26 17 -34 15 -19 -4 8 -9 25 -14 44 -12 25 2 32 8 34 30 3 22 -2 28
-32 38 -38 12 -48 36 -20 47 9 3 26 0 38 -7 19 -12 20 -12 7 3 -18 22 -58 22
-69 0z"/>
</g>
</svg>
